<?xml version="1.0" encoding="UTF-8" standalone="no"?>
<!-- Created with Inkscape (http://www.inkscape.org/) -->

<svg
   xmlns:dc="http://purl.org/dc/elements/1.1/"
   xmlns:cc="http://creativecommons.org/ns#"
   xmlns:rdf="http://www.w3.org/1999/02/22-rdf-syntax-ns#"
   xmlns:svg="http://www.w3.org/2000/svg"
   xmlns="http://www.w3.org/2000/svg"
   xmlns:sodipodi="http://sodipodi.sourceforge.net/DTD/sodipodi-0.dtd"
   xmlns:inkscape="http://www.inkscape.org/namespaces/inkscape"
   width="1154.1792"
   height="354.25815"
   viewBox="0 0 305.37659 93.730804"
   version="1.1"
   id="svg8"
   inkscape:version="0.92.3 (2405546, 2018-03-11)"
   sodipodi:docname="logo.svg"
   inkscape:export-filename="C:\Users\ESTSYS\Desktop\pg_8.png"
   inkscape:export-xdpi="300"
   inkscape:export-ydpi="300">
  <defs
     id="defs2" />
  <sodipodi:namedview
     id="base"
     pagecolor="#ffffff"
     bordercolor="#666666"
     borderopacity="1.0"
     inkscape:pageopacity="0.0"
     inkscape:pageshadow="2"
     inkscape:zoom="1"
     inkscape:cx="519.80003"
     inkscape:cy="88.86007"
     inkscape:document-units="mm"
     inkscape:current-layer="layer1"
     showgrid="false"
     fit-margin-top="0"
     fit-margin-left="0"
     fit-margin-right="0"
     fit-margin-bottom="0"
     units="px"
     showguides="true"
     inkscape:guide-bbox="true"
     inkscape:window-width="1920"
     inkscape:window-height="1057"
     inkscape:window-x="-8"
     inkscape:window-y="-8"
     inkscape:window-maximized="1">
    <sodipodi:guide
       position="-81.049692,69.503126"
       orientation="1,0"
       id="guide829"
       inkscape:locked="false"
       inkscape:label=""
       inkscape:color="rgb(0,0,255)" />
    <sodipodi:guide
       position="14.034702,91.207032"
       orientation="0,1"
       id="guide856"
       inkscape:locked="false" />
    <sodipodi:guide
       position="305.20782,52.00647"
       orientation="1,0"
       id="guide874"
       inkscape:locked="false" />
    <sodipodi:guide
       position="1.9757212e-006,-2.4871507e-007"
       orientation="0,1"
       id="guide876"
       inkscape:locked="false" />
  </sodipodi:namedview>
  <metadata
     id="metadata5">
    <rdf:RDF>
      <cc:Work
         rdf:about="">
        <dc:format>image/svg+xml</dc:format>
        <dc:type
           rdf:resource="http://purl.org/dc/dcmitype/StillImage" />
        <dc:title />
      </cc:Work>
    </rdf:RDF>
  </metadata>
  <g
     inkscape:label="Layer 1"
     inkscape:groupmode="layer"
     id="layer1"
     transform="translate(-166.76488,-111.75447)">
    <path
       inkscape:connector-curvature="0"
       style="fill:#f3a84f;fill-opacity:1;stroke-width:0.2097417"
       d="m 216.05972,148.29559 c 0.34266,19.10188 -14.91639,34.91745 -34.01743,35.26008 l -0.67351,0.02 c 15.79849,-3.09439 27.13117,-18.97543 23.97389,-35.09751 z"
       id="path898"
       sodipodi:nodetypes="ccccc" />
    <path
       sodipodi:nodetypes="cccccc"
       inkscape:connector-curvature="0"
       id="path900"
       d="m 166.76488,205.48527 v -90.82013 c 0,0 24.71129,-11.59183 45.10066,11.49044 -17.70486,7.26199 -19.89122,27.10904 2.48632,33.52655 -27.42234,-3.25923 -32.98308,23.89354 -23.34467,34.59775 -12.15684,2.57263 -24.24231,11.20539 -24.24231,11.20539 z"
       style="fill:#151b21;fill-opacity:1;stroke:none;stroke-width:0.47823057px;stroke-linecap:butt;stroke-linejoin:miter;stroke-opacity:1" />
    <path
       inkscape:connector-curvature="0"
       style="fill:#f3a84f;fill-opacity:1;stroke-width:0.2097417"
       d="m 205.22467,123.76443 c -10.05594,10.4233 -4.78368,4.96179 -8.64889,8.96735 -4.25657,-4.10573 -9.49035,-6.23668 -15.57439,-7.20327 l -0.20181,-11.25027 c 9.55092,-0.17212 18.04064,3.32676 24.42509,9.48619 z"
       id="path902"
       sodipodi:nodetypes="ccccc" />
    <path
       inkscape:connector-curvature="0"
       style="fill:#f3a84f;fill-opacity:1;stroke-width:0.2097417"
       d="m 205.69595,124.22085 c 6.3845,6.15944 10.17849,13.99645 10.34982,23.54739 l -10.80468,0.19381 c -1.18417,-6.04462 -3.93589,-10.66675 -8.19332,-14.7733 5.91315,-6.12831 4.89995,-5.08275 8.64818,-8.9679 z"
       id="path904"
       sodipodi:nodetypes="ccccc" />
    <path
       sodipodi:nodetypes="ccccc"
       id="path906"
       d="m 186.73078,183.15553 c -0.25094,0.0414 -3.64455,0.40014 -4.68849,0.40014 l -0.67351,0.02 c 2.49464,-0.5708 4.17453,-1.10163 5.32796,-1.58176 z"
       style="fill:#f3a84f;fill-opacity:1;stroke-width:0.2097417"
       inkscape:connector-curvature="0" />
    <path
       sodipodi:nodetypes="cccc"
       inkscape:connector-curvature="0"
       id="path908"
       d="m 181.00139,125.52851 c 7.30479,3.69665 15.46753,10.73169 17.08727,16.99523 0.35194,-3.00832 1.11196,-5.06632 1.85783,-6.19446 -4.36183,-5.70647 -10.94483,-9.82353 -18.9451,-10.80077 z"
       style="fill:#000000;fill-opacity:1;stroke:none;stroke-width:0.26458332px;stroke-linecap:butt;stroke-linejoin:miter;stroke-opacity:1" />
    <path
       sodipodi:nodetypes="cccc"
       inkscape:connector-curvature="0"
       id="path910"
       d="m 205.26647,159.76602 c 2.47751,-0.47877 6.81107,-0.45417 9.08539,-0.0839 -3.4893,0.28906 -6.27423,0.17334 -9.38381,1.41022 0.11745,-0.49522 0.23558,-0.9702 0.29842,-1.32632 z"
       style="fill:#874d09;fill-opacity:1;stroke:none;stroke-width:0.26458332px;stroke-linecap:butt;stroke-linejoin:miter;stroke-opacity:1" />
    <path
       sodipodi:nodetypes="cccc"
       inkscape:connector-curvature="0"
       id="path912"
       d="m 186.61743,182.02417 c 0,-0.20834 -0.002,-0.31824 -0.002,-0.43098 -1.42946,0.74737 -3.58563,1.46741 -5.24658,1.98248 2.63607,-0.62304 4.02255,-1.06685 5.24868,-1.5515 z"
       style="fill:#000000;fill-opacity:1;stroke:none;stroke-width:0.26499999;stroke-linecap:butt;stroke-linejoin:miter;stroke-miterlimit:4;stroke-dasharray:none;stroke-opacity:1" />
    <path
       sodipodi:nodetypes="ccccc"
       inkscape:connector-curvature="0"
       id="path914"
       d="m 203.96182,125.07405 -7.38604,7.65773 0.47199,0.45697 7.35959,-7.64081 z"
       style="fill:#000000;fill-opacity:1;stroke:none;stroke-width:0.26458332px;stroke-linecap:butt;stroke-linejoin:miter;stroke-opacity:1" />
    <g
       id="g971"
       style="fill:#f3a84f;fill-opacity:1"
       transform="matrix(1.3560853,0,0,1.3560853,168.10155,-37.617864)">
      <path
         sodipodi:nodetypes="cccc"
         inkscape:connector-curvature="0"
         id="path946"
         d="m 49.331293,118.92323 0.01219,1.33861 c 0,0 7.034815,-1.37242 12.464318,0.43597 -3.55694,-2.93454 -12.476512,-1.77458 -12.476512,-1.77458 z"
         style="fill:#f3a84f;fill-opacity:1;stroke:none;stroke-width:0.26458332px;stroke-linecap:butt;stroke-linejoin:miter;stroke-opacity:1" />
      <path
         style="fill:#f3a84f;fill-opacity:1;stroke:none;stroke-width:0.26458332px;stroke-linecap:butt;stroke-linejoin:miter;stroke-opacity:1"
         d="m 79.316189,127.88967 c 2.23e-4,0.55037 0,1.28984 0,1.28984 0,0 4.539394,-1.92332 10.085828,-1.17515 -3.296426,-1.24066 -6.738841,-0.87353 -10.085828,-0.11469 z"
         id="path948"
         inkscape:connector-curvature="0"
         sodipodi:nodetypes="cccc" />
      <path
         sodipodi:nodetypes="cccc"
         inkscape:connector-curvature="0"
         id="path950"
         d="m 106.29958,127.5843 c 1.39125,0.65561 1.43555,1.04409 1.72806,1.73101 -4.28608,-2.66778 -9.198508,-1.75187 -11.716443,-1.23756 2.334386,-1.54042 8.126413,-1.55631 9.988383,-0.49345 z"
         style="fill:#f3a84f;fill-opacity:1;stroke:none;stroke-width:0.26458332px;stroke-linecap:butt;stroke-linejoin:miter;stroke-opacity:1" />
      <path
         style="fill:#f3a84f;fill-opacity:1;stroke:none;stroke-width:0.26458332px;stroke-linecap:butt;stroke-linejoin:miter;stroke-opacity:1"
         d="m 138.65587,128.30635 c -0.2132,0.52417 -0.23607,0.56864 -0.52918,1.34365 -4.28608,-2.66778 -8.85264,-1.47757 -11.58102,0.72668 2.75904,-4.90119 10.24823,-3.13319 12.1102,-2.07033 z"
         id="path952"
         inkscape:connector-curvature="0"
         sodipodi:nodetypes="cccc" />
      <path
         sodipodi:nodetypes="ccccc"
         inkscape:connector-curvature="0"
         id="path954"
         d="m 149.68878,127.62629 c 0.005,0.59526 0.005,0.68421 -0.003,1.35897 1.69944,-1.08446 9.44636,-1.29806 10.04106,-1.3434 -3.35468,0.0243 -6.68509,-0.0411 -10.03837,-0.0156 z"
         style="fill:#f3a84f;fill-opacity:1;stroke:none;stroke-width:0.26458332px;stroke-linecap:butt;stroke-linejoin:miter;stroke-opacity:1" />
      <path
         sodipodi:nodetypes="cccc"
         inkscape:connector-curvature="0"
         id="path960"
         d="m 195.92073,128.30141 c -0.33727,0.73654 -0.18331,0.39852 -0.48042,1.08928 -5.33479,-2.14342 -9.19704,-0.80933 -11.52301,0.82179 2.99073,-4.64512 10.14146,-2.97393 12.00343,-1.91107 z"
         style="fill:#f3a84f;fill-opacity:1;stroke:none;stroke-width:0.26458332px;stroke-linecap:butt;stroke-linejoin:miter;stroke-opacity:1" />
      <path
         style="fill:#f3a84f;fill-opacity:1;stroke:none;stroke-width:0.26458332px;stroke-linecap:butt;stroke-linejoin:miter;stroke-opacity:1"
         d="m 205.91905,138.18338 c 0.005,0.59526 0.0251,1.19647 0.26127,1.87123 3.26435,-1.59958 16.43885,-1.73715 17.89935,-1.85566 -3.43575,-0.005 -14.85771,-0.014 -18.16062,-0.0156 z"
         id="path962"
         inkscape:connector-curvature="0"
         sodipodi:nodetypes="cccc" />
    </g>
    <g
       aria-label="Practice"
       style="font-style:normal;font-variant:normal;font-weight:normal;font-stretch:normal;font-size:69.26259613px;line-height:1.25;font-family:Ubuntu;-inkscape-font-specification:'Ubuntu, Normal';font-variant-ligatures:normal;font-variant-caps:normal;font-variant-numeric:normal;font-feature-settings:normal;text-align:start;letter-spacing:0px;word-spacing:0px;writing-mode:lr-tb;text-anchor:start;fill:#151b21;fill-opacity:1;stroke:none;stroke-width:4.32877445"
       id="text1050">
      <path
         d="m 241.0425,117.60593 q 10.11234,0 15.51482,3.87871 5.47175,3.80944 5.47175,11.42833 0,4.15575 -1.52378,7.13405 -1.45452,2.90903 -4.29428,4.77912 -2.77051,1.80082 -6.78774,2.63197 -4.01723,0.83115 -9.0734,0.83115 h -5.33322 v 17.80049 h -6.71847 V 118.7834 q 2.83977,-0.69263 6.3029,-0.90041 3.53239,-0.27706 6.44142,-0.27706 z m 0.5541,5.88733 q -4.29428,0 -6.57995,0.20778 v 18.83943 h 5.05617 q 3.46313,0 6.23364,-0.41558 2.7705,-0.48483 4.64059,-1.52377 1.93935,-1.1082 2.97829,-2.97829 1.03894,-1.87009 1.03894,-4.77912 0,-2.77051 -1.1082,-4.57134 -1.03894,-1.80082 -2.90903,-2.83976 -1.80083,-1.1082 -4.22502,-1.52378 -2.42419,-0.41557 -5.12543,-0.41557 z"
         style="font-style:normal;font-variant:normal;font-weight:normal;font-stretch:normal;font-size:69.26259613px;font-family:Ubuntu;-inkscape-font-specification:'Ubuntu, Normal';font-variant-ligatures:normal;font-variant-caps:normal;font-variant-numeric:normal;font-feature-settings:normal;text-align:start;writing-mode:lr-tb;text-anchor:start;fill:#151b21;fill-opacity:1;stroke-width:4.32877445"
         id="path841" />
      <path
         d="m 283.25264,129.31131 q 0.83115,0 1.87009,0.13853 1.1082,0.0693 2.14714,0.27705 1.03894,0.13852 1.87009,0.34631 0.90042,0.13853 1.31599,0.27705 l -1.1082,5.61027 q -0.76189,-0.27705 -2.56272,-0.62336 -1.73156,-0.41558 -4.50206,-0.41558 -1.80083,0 -3.60166,0.41558 -1.73156,0.34631 -2.28567,0.48484 v 30.26775 h -6.44142 v -34.49277 q 2.28567,-0.83115 5.67954,-1.52378 3.39386,-0.76189 7.61888,-0.76189 z"
         style="font-style:normal;font-variant:normal;font-weight:normal;font-stretch:normal;font-size:69.26259613px;font-family:Ubuntu;-inkscape-font-specification:'Ubuntu, Normal';font-variant-ligatures:normal;font-variant-caps:normal;font-variant-numeric:normal;font-feature-settings:normal;text-align:start;writing-mode:lr-tb;text-anchor:start;fill:#151b21;fill-opacity:1;stroke-width:4.32877445"
         id="path843" />
      <path
         d="m 308.92959,161.44916 q 2.28566,0 4.01723,-0.0693 1.80083,-0.13853 2.97829,-0.41558 v -10.7357 q -0.69262,-0.34632 -2.28566,-0.5541 -1.52378,-0.27705 -3.74018,-0.27705 -1.45452,0 -3.11682,0.20778 -1.59304,0.20779 -2.97829,0.90042 -1.31599,0.62336 -2.21641,1.80083 -0.90041,1.1082 -0.90041,2.97829 0,3.46313 2.2164,4.84838 2.21641,1.31599 6.02585,1.31599 z m -0.5541,-32.27637 q 3.8787,0 6.51068,1.03894 2.70124,0.96967 4.29428,2.83976 1.66231,1.80083 2.35493,4.36355 0.69263,2.49345 0.69263,5.54101 v 22.51034 q -0.83115,0.13852 -2.35493,0.41557 -1.45452,0.20779 -3.32461,0.41558 -1.87009,0.20779 -4.08649,0.34631 -2.14714,0.20779 -4.29428,0.20779 -3.04755,0 -5.61027,-0.62336 -2.56272,-0.62337 -4.43281,-1.93936 -1.87009,-1.38525 -2.90903,-3.60165 -1.03893,-2.2164 -1.03893,-5.33322 0,-2.97829 1.17746,-5.12543 1.24673,-2.14714 3.3246,-3.46313 2.07788,-1.31599 4.84839,-1.93935 2.7705,-0.62337 5.81805,-0.62337 0.96968,0 2.00862,0.13853 1.03894,0.0693 1.93935,0.27705 0.96968,0.13852 1.6623,0.27705 0.69263,0.13852 0.96968,0.20779 v -1.80083 q 0,-1.59304 -0.34631,-3.11682 -0.34631,-1.59304 -1.24673,-2.7705 -0.90041,-1.24673 -2.49345,-1.93936 -1.52378,-0.76188 -4.01723,-0.76188 -3.18608,0 -5.61027,0.48483 -2.35493,0.41558 -3.5324,0.90042 l -0.76188,-5.33322 q 1.24672,-0.5541 4.15575,-1.03894 2.90903,-0.5541 6.3029,-0.5541 z"
         style="font-style:normal;font-variant:normal;font-weight:normal;font-stretch:normal;font-size:69.26259613px;font-family:Ubuntu;-inkscape-font-specification:'Ubuntu, Normal';font-variant-ligatures:normal;font-variant-caps:normal;font-variant-numeric:normal;font-feature-settings:normal;text-align:start;writing-mode:lr-tb;text-anchor:start;fill:#151b21;fill-opacity:1;stroke-width:4.32877445"
         id="path845" />
      <path
         d="m 348.51207,166.9209 q -4.36354,0 -7.68815,-1.38525 -3.25534,-1.38525 -5.541,-3.8787 -2.21641,-2.49346 -3.32461,-5.88732 -1.1082,-3.46313 -1.1082,-7.61889 0,-4.15576 1.17747,-7.61889 1.24672,-3.46313 3.46312,-5.95658 2.21641,-2.56272 5.40249,-3.94797 3.25534,-1.45451 7.20331,-1.45451 2.42419,0 4.84838,0.41557 2.42419,0.41558 4.64059,1.31599 l -1.45451,5.47175 q -1.45452,-0.69263 -3.39387,-1.1082 -1.87009,-0.41558 -4.01723,-0.41558 -5.40248,0 -8.31151,3.39387 -2.83977,3.39387 -2.83977,9.90455 0,2.90903 0.62337,5.33322 0.69262,2.42419 2.07787,4.15576 1.45452,1.73156 3.67092,2.70124 2.2164,0.90041 5.40248,0.90041 2.56272,0 4.6406,-0.48484 2.07788,-0.48484 3.25534,-1.03894 l 0.90041,5.40249 q -0.5541,0.34631 -1.59304,0.69262 -1.03893,0.27705 -2.35492,0.48484 -1.31599,0.27705 -2.83977,0.41558 -1.45452,0.20778 -2.83977,0.20778 z"
         style="font-style:normal;font-variant:normal;font-weight:normal;font-stretch:normal;font-size:69.26259613px;font-family:Ubuntu;-inkscape-font-specification:'Ubuntu, Normal';font-variant-ligatures:normal;font-variant-caps:normal;font-variant-numeric:normal;font-feature-settings:normal;text-align:start;writing-mode:lr-tb;text-anchor:start;fill:#151b21;fill-opacity:1;stroke-width:4.32877445"
         id="path847" />
      <path
         d="m 371.08086,130.0732 h 13.64473 v 5.40248 h -13.64473 v 16.62303 q 0,2.70124 0.41558,4.50207 0.41557,1.73156 1.24672,2.7705 0.83115,0.96968 2.07788,1.38525 1.24673,0.41558 2.90903,0.41558 2.90903,0 4.64059,-0.62337 1.80083,-0.69262 2.49346,-0.96967 l 1.24672,5.33322 q -0.96967,0.48484 -3.39386,1.17746 -2.42419,0.76189 -5.54101,0.76189 -3.67092,0 -6.09511,-0.90041 -2.35493,-0.96968 -3.80944,-2.83977 -1.45452,-1.87009 -2.07788,-4.57133 -0.5541,-2.7705 -0.5541,-6.37216 v -32.13784 l 6.44142,-1.10821 z"
         style="font-style:normal;font-variant:normal;font-weight:normal;font-stretch:normal;font-size:69.26259613px;font-family:Ubuntu;-inkscape-font-specification:'Ubuntu, Normal';font-variant-ligatures:normal;font-variant-caps:normal;font-variant-numeric:normal;font-feature-settings:normal;text-align:start;writing-mode:lr-tb;text-anchor:start;fill:#151b21;fill-opacity:1;stroke-width:4.32877445"
         id="path849" />
      <path
         d="m 399.36381,166.08975 h -6.44142 V 130.0732 h 6.44142 z m -3.25534,-42.52723 q -1.73157,0 -2.9783,-1.1082 -1.17746,-1.17747 -1.17746,-3.11682 0,-1.93935 1.17746,-3.04755 1.24673,-1.17747 2.9783,-1.17747 1.73156,0 2.90902,1.17747 1.24673,1.1082 1.24673,3.04755 0,1.93935 -1.24673,3.11682 -1.17746,1.1082 -2.90902,1.1082 z"
         style="font-style:normal;font-variant:normal;font-weight:normal;font-stretch:normal;font-size:69.26259613px;font-family:Ubuntu;-inkscape-font-specification:'Ubuntu, Normal';font-variant-ligatures:normal;font-variant-caps:normal;font-variant-numeric:normal;font-feature-settings:normal;text-align:start;writing-mode:lr-tb;text-anchor:start;fill:#151b21;fill-opacity:1;stroke-width:4.32877445"
         id="path851" />
      <path
         d="m 426.16194,166.9209 q -4.36354,0 -7.68814,-1.38525 -3.25535,-1.38525 -5.54101,-3.8787 -2.2164,-2.49346 -3.32461,-5.88732 -1.1082,-3.46313 -1.1082,-7.61889 0,-4.15576 1.17747,-7.61889 1.24672,-3.46313 3.46313,-5.95658 2.2164,-2.56272 5.40248,-3.94797 3.25534,-1.45451 7.20331,-1.45451 2.42419,0 4.84838,0.41557 2.42419,0.41558 4.64059,1.31599 l -1.45451,5.47175 q -1.45451,-0.69263 -3.39387,-1.1082 -1.87009,-0.41558 -4.01723,-0.41558 -5.40248,0 -8.31151,3.39387 -2.83977,3.39387 -2.83977,9.90455 0,2.90903 0.62337,5.33322 0.69262,2.42419 2.07788,4.15576 1.45451,1.73156 3.67091,2.70124 2.21641,0.90041 5.40249,0.90041 2.56271,0 4.64059,-0.48484 2.07788,-0.48484 3.25534,-1.03894 l 0.90042,5.40249 q -0.55411,0.34631 -1.59304,0.69262 -1.03894,0.27705 -2.35493,0.48484 -1.31599,0.27705 -2.83977,0.41558 -1.45451,0.20778 -2.83977,0.20778 z"
         style="font-style:normal;font-variant:normal;font-weight:normal;font-stretch:normal;font-size:69.26259613px;font-family:Ubuntu;-inkscape-font-specification:'Ubuntu, Normal';font-variant-ligatures:normal;font-variant-caps:normal;font-variant-numeric:normal;font-feature-settings:normal;text-align:start;writing-mode:lr-tb;text-anchor:start;fill:#151b21;fill-opacity:1;stroke-width:4.32877445"
         id="path853" />
      <path
         d="m 440.69626,148.15074 q 0,-4.77912 1.38525,-8.31151 1.38525,-3.60166 3.67092,-5.95659 2.28566,-2.35492 5.26395,-3.53239 2.97829,-1.17746 6.09511,-1.17746 7.27257,0 11.15128,4.57133 3.87871,4.50207 3.87871,13.78326 0,0.41557 0,1.1082 0,0.62336 -0.0693,1.17746 h -24.65748 q 0.41557,5.61027 3.25534,8.5193 2.83977,2.90903 8.86561,2.90903 3.39387,0 5.67954,-0.5541 2.35492,-0.62336 3.53239,-1.17746 l 0.90041,5.40248 q -1.17746,0.62336 -4.15575,1.31599 -2.90903,0.69262 -6.64921,0.69262 -4.70986,0 -8.17299,-1.38525 -3.39387,-1.45451 -5.61027,-3.94797 -2.2164,-2.49345 -3.3246,-5.88732 -1.03894,-3.46313 -1.03894,-7.54962 z m 24.72674,-3.53239 q 0.0693,-4.36355 -2.2164,-7.13405 -2.2164,-2.83977 -6.16437,-2.83977 -2.2164,0 -3.94797,0.90042 -1.6623,0.83115 -2.83977,2.2164 -1.17746,1.38525 -1.87009,3.18608 -0.62336,1.80083 -0.83115,3.67092 z"
         style="font-style:normal;font-variant:normal;font-weight:normal;font-stretch:normal;font-size:69.26259613px;font-family:Ubuntu;-inkscape-font-specification:'Ubuntu, Normal';font-variant-ligatures:normal;font-variant-caps:normal;font-variant-numeric:normal;font-feature-settings:normal;text-align:start;writing-mode:lr-tb;text-anchor:start;fill:#151b21;fill-opacity:1;stroke-width:4.32877445"
         id="path855" />
    </g>
    <g
       transform="translate(247.98466,21.366218)"
       aria-label="GAUGE"
       style="font-style:normal;font-variant:normal;font-weight:bold;font-stretch:normal;font-size:30.76887894px;line-height:1.25;font-family:Quicksand;-inkscape-font-specification:'Quicksand, Bold';font-variant-ligatures:normal;font-variant-caps:normal;font-variant-numeric:normal;font-feature-settings:normal;text-align:start;letter-spacing:0px;word-spacing:0px;writing-mode:lr-tb;text-anchor:start;fill:#5c6c75;fill-opacity:1;stroke:#874d09;stroke-width:0.25;stroke-opacity:1;stroke-miterlimit:4;stroke-dasharray:none"
       id="text1060">
      <path
         inkscape:connector-curvature="0"
         d="m 141.73044,167.29559 q 0.79999,0 1.32306,0.55384 0.52307,0.52307 0.52307,1.32306 v 6.523 q 0,1.07691 -0.95384,1.66152 -3.01535,1.8769 -6.61531,1.8769 -3.04611,0 -5.6307,-1.4769 -2.58459,-1.50768 -4.09226,-4.03073 -1.50768,-2.55381 -1.50768,-5.56916 0,-3.01535 1.50768,-5.5384 1.50767,-2.55382 4.09226,-4.03073 2.58459,-1.50767 5.6307,-1.50767 3.04612,0 5.29225,1.23075 0.46153,0.24616 0.67692,0.64615 0.24615,0.4 0.24615,0.86153 0,0.76922 -0.52307,1.35383 -0.49231,0.55384 -1.23076,0.55384 -0.46153,0 -1.01537,-0.24615 -1.66152,-0.70768 -3.44612,-0.70768 -1.9692,0 -3.63072,1.01537 -1.66152,0.9846 -2.64613,2.67689 -0.95383,1.69229 -0.95383,3.69227 0,1.99997 0.95383,3.69226 0.98461,1.69229 2.64613,2.70766 1.66152,0.98461 3.63072,0.98461 0.86153,0 1.84614,-0.15385 0.9846,-0.15384 1.72305,-0.39999 v -3.99996 h -2.89227 q -0.79999,0 -1.35383,-0.52307 -0.52307,-0.52307 -0.52307,-1.32306 0,-0.79999 0.52307,-1.32306 0.55384,-0.52307 1.35383,-0.52307 z"
         style="font-style:normal;font-variant:normal;font-weight:bold;font-stretch:normal;font-size:30.76887894px;font-family:Quicksand;-inkscape-font-specification:'Quicksand, Bold';font-variant-ligatures:normal;font-variant-caps:normal;font-variant-numeric:normal;font-feature-settings:normal;text-align:start;writing-mode:lr-tb;text-anchor:start;fill:#f3a84f;fill-opacity:1;stroke:#874d09;stroke-width:0.25;stroke-miterlimit:4;stroke-dasharray:none;stroke-opacity:1"
         id="path927" />
      <path
         inkscape:connector-curvature="0"
         d="m 164.13979,176.52625 q 0.15385,0.4 0.15385,0.73845 0,0.8 -0.52307,1.32307 -0.52307,0.4923 -1.19999,0.4923 -0.55384,0 -1.01537,-0.33846 -0.43077,-0.33846 -0.67692,-0.92307 l -1.59998,-3.72303 h -9.16912 l -1.59999,3.7538 q -0.21538,0.58461 -0.67691,0.92307 -0.43077,0.30769 -0.95384,0.30769 -0.79999,0 -1.23075,-0.43077 -0.4,-0.43076 -0.4,-1.16921 0,-0.27692 0.0923,-0.58461 l 7.66145,-18.39979 q 0.24615,-0.61538 0.73845,-0.95384 0.49231,-0.33845 1.10768,-0.27692 0.55384,0 1.01538,0.33846 0.4923,0.30769 0.70768,0.8923 z m -12.52293,-5.96916 h 6.15378 l -3.10766,-7.19992 z"
         style="font-style:normal;font-variant:normal;font-weight:bold;font-stretch:normal;font-size:30.76887894px;font-family:Quicksand;-inkscape-font-specification:'Quicksand, Bold';font-variant-ligatures:normal;font-variant-caps:normal;font-variant-numeric:normal;font-feature-settings:normal;text-align:start;writing-mode:lr-tb;text-anchor:start;fill:#f3a84f;fill-opacity:1;stroke:#874d09;stroke-width:0.25;stroke-miterlimit:4;stroke-dasharray:none;stroke-opacity:1"
         id="path929" />
      <path
         inkscape:connector-curvature="0"
         d="m 181.89055,157.35724 q 0.8,0 1.2923,0.52307 0.4923,0.52307 0.4923,1.35383 v 11.13834 q 0,2.55381 -1.07691,4.52302 -1.07691,1.96921 -3.01535,3.07689 -1.93844,1.10768 -4.43072,1.10768 -2.49228,0 -4.46149,-1.10768 -1.93844,-1.10768 -3.01535,-3.07689 -1.07691,-1.96921 -1.07691,-4.52302 v -11.13834 q 0,-0.79999 0.55384,-1.32306 0.55384,-0.55384 1.41537,-0.55384 0.73845,0 1.29229,0.55384 0.55384,0.52307 0.55384,1.32306 v 11.13834 q 0,1.4769 0.64615,2.64612 0.64615,1.13845 1.72306,1.75383 1.10768,0.61537 2.3692,0.61537 1.32306,0 2.46151,-0.61537 1.16922,-0.61538 1.84613,-1.75383 0.70769,-1.16922 0.70769,-2.64612 v -11.13834 q 0,-0.83076 0.46153,-1.35383 0.46153,-0.52307 1.26152,-0.52307 z"
         style="font-style:normal;font-variant:normal;font-weight:bold;font-stretch:normal;font-size:30.76887894px;font-family:Quicksand;-inkscape-font-specification:'Quicksand, Bold';font-variant-ligatures:normal;font-variant-caps:normal;font-variant-numeric:normal;font-feature-settings:normal;text-align:start;writing-mode:lr-tb;text-anchor:start;fill:#f3a84f;fill-opacity:1;stroke:#874d09;stroke-width:0.25;stroke-miterlimit:4;stroke-dasharray:none;stroke-opacity:1"
         id="path931" />
      <path
         inkscape:connector-curvature="0"
         d="m 204.16963,167.29559 q 0.79999,0 1.32306,0.55384 0.52307,0.52307 0.52307,1.32306 v 6.523 q 0,1.07691 -0.95384,1.66152 -3.01535,1.8769 -6.61531,1.8769 -3.04611,0 -5.6307,-1.4769 -2.58459,-1.50768 -4.09226,-4.03073 -1.50768,-2.55381 -1.50768,-5.56916 0,-3.01535 1.50768,-5.5384 1.50767,-2.55382 4.09226,-4.03073 2.58459,-1.50767 5.6307,-1.50767 3.04612,0 5.29225,1.23075 0.46153,0.24616 0.67692,0.64615 0.24615,0.4 0.24615,0.86153 0,0.76922 -0.52307,1.35383 -0.49231,0.55384 -1.23076,0.55384 -0.46153,0 -1.01537,-0.24615 -1.66152,-0.70768 -3.44612,-0.70768 -1.9692,0 -3.63072,1.01537 -1.66152,0.9846 -2.64613,2.67689 -0.95383,1.69229 -0.95383,3.69227 0,1.99997 0.95383,3.69226 0.98461,1.69229 2.64613,2.70766 1.66152,0.98461 3.63072,0.98461 0.86153,0 1.84614,-0.15385 0.9846,-0.15384 1.72305,-0.39999 v -3.99996 h -2.89227 q -0.79999,0 -1.35383,-0.52307 -0.52307,-0.52307 -0.52307,-1.32306 0,-0.79999 0.52307,-1.32306 0.55384,-0.52307 1.35383,-0.52307 z"
         style="font-style:normal;font-variant:normal;font-weight:bold;font-stretch:normal;font-size:30.76887894px;font-family:Quicksand;-inkscape-font-specification:'Quicksand, Bold';font-variant-ligatures:normal;font-variant-caps:normal;font-variant-numeric:normal;font-feature-settings:normal;text-align:start;writing-mode:lr-tb;text-anchor:start;fill:#f3a84f;fill-opacity:1;stroke:#874d09;stroke-width:0.25;stroke-miterlimit:4;stroke-dasharray:none;stroke-opacity:1"
         id="path933" />
      <path
         inkscape:connector-curvature="0"
         d="m 221.87135,175.3878 q 0.79999,0 1.32306,0.55384 0.55384,0.52307 0.55384,1.23076 0,0.76922 -0.55384,1.26152 -0.52307,0.4923 -1.32306,0.4923 h -10.30758 q -0.79999,0 -1.35383,-0.52307 -0.52307,-0.55384 -0.52307,-1.35383 v -17.78441 q 0,-0.79999 0.52307,-1.32306 0.55384,-0.55384 1.35383,-0.55384 h 10.30758 q 0.79999,0 1.32306,0.52307 0.55384,0.4923 0.55384,1.29229 0,0.76922 -0.52307,1.26153 -0.52307,0.46153 -1.35383,0.46153 h -8.33837 v 5.23071 h 6.95377 q 0.79999,0 1.32306,0.52307 0.55384,0.4923 0.55384,1.29229 0,0.76922 -0.52307,1.26153 -0.52307,0.46153 -1.35383,0.46153 h -6.95377 v 5.69224 z"
         style="font-style:normal;font-variant:normal;font-weight:bold;font-stretch:normal;font-size:30.76887894px;font-family:Quicksand;-inkscape-font-specification:'Quicksand, Bold';font-variant-ligatures:normal;font-variant-caps:normal;font-variant-numeric:normal;font-feature-settings:normal;text-align:start;writing-mode:lr-tb;text-anchor:start;fill:#f3a84f;fill-opacity:1;stroke:#874d09;stroke-width:0.25;stroke-miterlimit:4;stroke-dasharray:none;stroke-opacity:1"
         id="path935" />
    </g>
  </g>
</svg>
